<svg xmlns="http://www.w3.org/2000/svg" viewBox="0 0 197 108"><title>hiepdeep197x108</title><g id="Layer_2" data-name="Layer 2"><g id="Layer_9" data-name="Layer 9"><g id="x5"><path id="P" d="M196,90.18A4.73,4.73,0,0,0,194.82,89a5.17,5.17,0,0,0-3.07-1H177v20h1V98.5h13.75a5.17,5.17,0,0,0,3.07-1A4.73,4.73,0,0,0,196,96.32a5.21,5.21,0,0,0,0-6.14Zm-4.25,7.32H178V89h13.75a4.25,4.25,0,0,1,0,8.5Z"/><g id="E"><rect x="149" y="97.5" width="20" height="1"/><rect x="149" y="88" width="20" height="1"/><rect x="149" y="107" width="20" height="1"/></g><g id="E-2" data-name="E"><rect x="121" y="97.5" width="20" height="1"/><rect x="121" y="88" width="20" height="1"/><rect x="121" y="107" width="20" height="1"/></g><g id="D"><path d="M113,93.25v9.5a5.17,5.17,0,0,1-1,3.07,4.73,4.73,0,0,1-1.18,1.18,5.17,5.17,0,0,1-3.07,1H93V97.5h1V107h13.75a4.25,4.25,0,0,0,4.25-4.25v-9.5A4.25,4.25,0,0,0,107.75,89H93V88h14.75a5.17,5.17,0,0,1,3.07,1A4.73,4.73,0,0,1,112,90.18,5.17,5.17,0,0,1,113,93.25Z"/></g><path id="P-2" data-name="P" d="M84,90.18A4.73,4.73,0,0,0,82.82,89a5.17,5.17,0,0,0-3.07-1H65v20h1V98.5H79.75a5.17,5.17,0,0,0,3.07-1A4.73,4.73,0,0,0,84,96.32a5.21,5.21,0,0,0,0-6.14ZM79.75,97.5H66V89H79.75a4.25,4.25,0,0,1,0,8.5Z"/><g id="E-3" data-name="E"><rect x="37" y="97.5" width="20" height="1"/><rect x="37" y="88" width="20" height="1"/><rect x="37" y="107" width="20" height="1"/></g><rect id="I" x="28" y="88" width="1" height="20"/><polygon id="H" points="20 88 20 108 19 108 19 98.5 1 98.5 1 108 0 108 0 88 1 88 1 97.5 19 97.5 19 88 20 88"/></g><g id="HD"><path d="M106.5,56V80h-16V56a8,8,0,0,0-16,0V80h-8a8,8,0,0,1-8-8V8a8,8,0,0,1,8-8h8V33.4a23.56,23.56,0,0,1,16,0,13.28,13.28,0,0,1,2.36,1c.56.28,1.12.56,1.64.84a24.06,24.06,0,0,1,4,3A22.27,22.27,0,0,1,103.26,44c.32.52.6,1.08.88,1.64A23.59,23.59,0,0,1,106.5,56Z"/><path d="M138.5,8V72a8,8,0,0,1-8,8h-20V64h10a2,2,0,0,0,2-2V18a2,2,0,0,0-2-2h-14V41.6a27.94,27.94,0,0,0-12-10.88,23,23,0,0,0-4-1.56V0h40A8,8,0,0,1,138.5,8Z"/></g></g></g></svg>